<?xml version="1.0" encoding="iso-8859-1"?>
<!-- Uploaded to: SVG Repo, www.svgrepo.com, Generator: SVG Repo Mixer Tools -->
<svg version="1.1" id="Layer_1" xmlns="http://www.w3.org/2000/svg" xmlns:xlink="http://www.w3.org/1999/xlink" 
	 viewBox="0 0 512 512" xml:space="preserve">
<path style="fill:#2D2D2D;" d="M0,355.272V31.352c0-5.744,4.704-10.448,10.448-10.448h491.104c5.744,0,10.448,4.704,10.448,10.448
	v323.92"/>
<g>
	<path style="fill:#E0E0E0;" d="M512,355.272v41.8c0,5.744-4.704,10.448-10.448,10.448H10.448C4.704,407.52,0,402.816,0,397.072
		v-41.8H512z"/>
	<rect x="146.28" y="480.648" style="fill:#E0E0E0;" width="219.432" height="10.448"/>
</g>
<polygon style="fill:#999999;" points="329.144,480.664 182.856,480.664 193.304,407.52 318.696,407.52 "/>
<rect x="20.896" y="41.8" style="fill:#2D2D2D;" width="470.2" height="292.576"/>
<circle style="fill:#FFFFFF;" cx="256.16" cy="188.088" r="67.416"/>
<path style="fill:#DB2B42;" d="M256,82.104c-58.624,0-106.144,47.456-106.144,105.984S197.376,294.08,256,294.08
	s106.144-47.456,106.144-105.984S314.624,82.104,256,82.104z M226.352,229.472v-86.608l81.104,43.304L226.352,229.472z"/>
</svg>